<mxfile host="app.diagrams.net" modified="2021-07-12T05:59:43.198Z" agent="5.0 (Windows NT 10.0; WOW64) AppleWebKit/537.36 (KHTML, like Gecko) SFive/76.1 Chrome/76.1.3809.94 Safari/537.36" etag="GQF-kSZ1fAmzj73g85MF" version="14.8.5" type="github">
  <diagram id="GJgRJn0Kxo9xsWQIulSl" name="Page-1">
    <mxGraphModel dx="1182" dy="774" grid="1" gridSize="10" guides="1" tooltips="1" connect="1" arrows="1" fold="1" page="1" pageScale="1" pageWidth="827" pageHeight="1169" math="0" shadow="0">
      <root>
        <mxCell id="0" />
        <mxCell id="1" parent="0" />
        <mxCell id="6Ytnl5Ir1UJzlE07AEL9-10" value="" style="edgeStyle=orthogonalEdgeStyle;rounded=0;orthogonalLoop=1;jettySize=auto;html=1;" edge="1" parent="1" source="6Ytnl5Ir1UJzlE07AEL9-1" target="6Ytnl5Ir1UJzlE07AEL9-2">
          <mxGeometry relative="1" as="geometry" />
        </mxCell>
        <mxCell id="6Ytnl5Ir1UJzlE07AEL9-1" value="&lt;p class=&quot;MsoNormal&quot;&gt;init_mac_at_startup() &lt;/p&gt;&lt;br/&gt;&lt;br/&gt;&lt;p class=&quot;MsoNormal&quot;&gt;&lt;span style=&quot;color: red&quot;&gt;mac_rlc_main.c&lt;/span&gt;&lt;/p&gt;" style="shape=process;whiteSpace=wrap;html=1;backgroundOutline=1;" vertex="1" parent="1">
          <mxGeometry x="40" y="40" width="280" height="100" as="geometry" />
        </mxCell>
        <mxCell id="6Ytnl5Ir1UJzlE07AEL9-11" value="" style="edgeStyle=orthogonalEdgeStyle;rounded=0;orthogonalLoop=1;jettySize=auto;html=1;" edge="1" parent="1" source="6Ytnl5Ir1UJzlE07AEL9-2" target="6Ytnl5Ir1UJzlE07AEL9-5">
          <mxGeometry relative="1" as="geometry" />
        </mxCell>
        <mxCell id="6Ytnl5Ir1UJzlE07AEL9-2" value="&lt;p class=&quot;MsoNormal&quot;&gt;mac_process_incoming_message&lt;br/&gt;&lt;/p&gt;&lt;br/&gt;&lt;br/&gt;&lt;p class=&quot;MsoNormal&quot;&gt;&lt;span style=&quot;color: red&quot;&gt;mac_main.c&lt;/span&gt;&lt;/p&gt;" style="shape=process;whiteSpace=wrap;html=1;backgroundOutline=1;" vertex="1" parent="1">
          <mxGeometry x="40" y="200" width="280" height="100" as="geometry" />
        </mxCell>
        <mxCell id="6Ytnl5Ir1UJzlE07AEL9-12" value="" style="edgeStyle=orthogonalEdgeStyle;rounded=0;orthogonalLoop=1;jettySize=auto;html=1;" edge="1" parent="1" source="6Ytnl5Ir1UJzlE07AEL9-5" target="6Ytnl5Ir1UJzlE07AEL9-7">
          <mxGeometry relative="1" as="geometry" />
        </mxCell>
        <mxCell id="6Ytnl5Ir1UJzlE07AEL9-5" value="&lt;p class=&quot;MsoNormal&quot;&gt;mac_process_dumgr_msg &lt;/p&gt;&lt;br/&gt;&lt;br/&gt;&lt;p class=&quot;MsoNormal&quot;&gt;&lt;span style=&quot;color: red&quot;&gt;mac_dumrg_sap.c&lt;/span&gt;&lt;/p&gt;" style="shape=process;whiteSpace=wrap;html=1;backgroundOutline=1;" vertex="1" parent="1">
          <mxGeometry x="40" y="360" width="280" height="100" as="geometry" />
        </mxCell>
        <mxCell id="6Ytnl5Ir1UJzlE07AEL9-13" value="" style="edgeStyle=orthogonalEdgeStyle;rounded=0;orthogonalLoop=1;jettySize=auto;html=1;" edge="1" parent="1" source="6Ytnl5Ir1UJzlE07AEL9-7" target="6Ytnl5Ir1UJzlE07AEL9-8">
          <mxGeometry relative="1" as="geometry" />
        </mxCell>
        <mxCell id="6Ytnl5Ir1UJzlE07AEL9-7" value="&lt;p class=&quot;MsoNormal&quot;&gt;mac_event_handler_func_ptr_table[cell_state][event]&lt;/p&gt;&lt;p class=&quot;MsoNormal&quot;&gt;&lt;br/&gt;&lt;br/&gt;&lt;/p&gt;&lt;p class=&quot;MsoNormal&quot;&gt;&lt;span style=&quot;color: red&quot;&gt;mac_dumrg_sap.c&lt;/span&gt;&lt;/p&gt;" style="shape=process;whiteSpace=wrap;html=1;backgroundOutline=1;" vertex="1" parent="1">
          <mxGeometry y="520" width="360" height="100" as="geometry" />
        </mxCell>
        <mxCell id="6Ytnl5Ir1UJzlE07AEL9-14" value="" style="edgeStyle=orthogonalEdgeStyle;rounded=0;orthogonalLoop=1;jettySize=auto;html=1;" edge="1" parent="1" source="6Ytnl5Ir1UJzlE07AEL9-8" target="6Ytnl5Ir1UJzlE07AEL9-9">
          <mxGeometry relative="1" as="geometry" />
        </mxCell>
        <mxCell id="6Ytnl5Ir1UJzlE07AEL9-8" value="&lt;p class=&quot;MsoNormal&quot; style=&quot;text-align: left&quot;&gt;(event)&amp;nbsp;&lt;/p&gt;&lt;p class=&quot;MsoNormal&quot;&gt;mac_cell_handle_dumgr_cell_idle_config_req&lt;/p&gt;&lt;p class=&quot;MsoNormal&quot;&gt;&lt;br&gt;&lt;br&gt;&lt;/p&gt;&lt;p class=&quot;MsoNormal&quot;&gt;&lt;span style=&quot;color: red&quot;&gt;mac_cell_fsm.c&lt;/span&gt;&lt;/p&gt;" style="shape=process;whiteSpace=wrap;html=1;backgroundOutline=1;" vertex="1" parent="1">
          <mxGeometry y="680" width="360" height="120" as="geometry" />
        </mxCell>
        <mxCell id="6Ytnl5Ir1UJzlE07AEL9-9" value="&lt;p class=&quot;MsoNormal&quot;&gt;create_execution_threads()&lt;br/&gt;&lt;/p&gt;&lt;p class=&quot;MsoNormal&quot; style=&quot;text-align: left&quot;&gt;&lt;br/&gt;&lt;br/&gt;&lt;/p&gt;&lt;p class=&quot;MsoNormal&quot;&gt;&lt;span style=&quot;color: red&quot;&gt;mac_execution_scheduler.c&lt;/span&gt;&lt;/p&gt;" style="shape=process;whiteSpace=wrap;html=1;backgroundOutline=1;" vertex="1" parent="1">
          <mxGeometry y="860" width="360" height="120" as="geometry" />
        </mxCell>
      </root>
    </mxGraphModel>
  </diagram>
</mxfile>
